# xmcd
#
# Track frame offsets:
# 150
# 13837
# 35927
# 49675
# 66007
# 88330
# 104477
# 123317
# 136327
# 152085
# 167707
# 183355
# 207867
#
# Disc length: 4271 seconds
#
#
# Revision: 9
# Processed by: cddbd v1.4PL0 Copyright (c) Steve Scherf et al.
# Submitted via: FreeRIP 2.52 
#
DISCID=b810ad0d
DTITLE=Lee Ann Womack - I Hope You Dance
DYEAR=2000
DGENRE=Country
TTITLE0=The Healing Kind
TTITLE1=I Hope You Dance
TTITLE2=After I Fall
TTITLE3=Stronger Than I Am
TTITLE4=I Know Why The River Runs
TTITLE5=Why They Call It Falling
TTITLE6=Ashes By Now
TTITLE7=Thinkin With My Heart Again
TTITLE8=I Feel Like I'm Forgetting Something
TTITLE9=Lonely Too
TTITLE10=Does My Ring Burn Your Finger
TTITLE11=Lord I Hope This Day Is Good
TTITLE12=Data
EXTD=YEAR: 2000
EXTT0=
EXTT1=
EXTT2=
EXTT3=
EXTT4=
EXTT5=
EXTT6=
EXTT7=
EXTT8=
EXTT9=
EXTT10=
EXTT11=
EXTT12=
PLAYORDER=
